:SAMPLES-PER-SECOND 24
:FULLY-SPECIFIED
:DEGREES
212
root  -0.214254 40.8217 11.7167 104.532 51.1441 138.346
RightUpLeg  22.9068 -25.2373 -39.8075
RightLeg  29.1143 -24.6332 -14.9505
RightFoot  5.51753 -0.964051 5.19243
RightToes  -1.74623e-010 0 -2.59999e-017
Spine  25.8684 8.56899 19.2176
Spine1  15.6146 21.058 -22.5564
HEad  18.7172 18.2187 -4.90912
LeftShoulder1  1.22011 -2.71985 -12.5238
LeftArm  -37.244 -1.49394 9.00703
LeftForeArm  134.749 -69.357 -149.693
LeftHand  -0.0638008 5.88433 -6.14931
RightShoulder  0.590696 2.43863 1.77711
RightArm  20.9575 77.44 96.7182
RightForeArm  12.2685 28.0712 5.2754
RightHand  -2.50602 3.91738 -30.819
LeftUpLeg  -74.7967 31.1391 -11.017
LeftLeg  53.0992 -2.84334 -2.02738
LeftFoot  15.9531 3.03053 -12.8162
LeftToes  -6.27559e-011 -2.10356e-011 8.24929e-012
213
root  0.550975 42.4788 11.5087 121.398 45.0828 158.451
RightUpLeg  23.5815 -15.2828 -32.7062
RightLeg  39.3709 -1.74667 -1.22229
RightFoot  29.1726 -3.45492 9.99462
RightToes  -1.74623e-010 0 -2.59999e-017
Spine  22.0724 11.9986 14.1745
Spine1  16.9019 20.239 -14.487
HEad  25.8157 5.35755 1.69265
LeftShoulder1  1.01576 -2.27707 -10.2831
LeftArm  -44.5307 -11.2457 14.8806
LeftForeArm  125.359 -74.1322 -138.441
LeftHand  -0.0367975 5.34832 -8.25442
RightShoulder  0.65705 3.06135 1.82537
RightArm  14.0374 72.9212 85.8055
RightForeArm  18.5676 36.6746 7.23069
RightHand  -2.44565 3.71121 -30.74
LeftUpLeg  -68.9696 29.9492 11.0253
LeftLeg  15.8795 9.49541 -2.00064
LeftFoot  29.8136 3.58446 -10.0729
LeftToes  -6.27559e-011 -2.10356e-011 8.24929e-012
214
root  1.07789 44.0387 9.48998 124.846 40.2074 168.105
RightUpLeg  22.6877 -8.59018 -35.9727
RightLeg  64.4389 9.70156 20.6426
RightFoot  35.1088 -5.23826 12.7648
RightToes  -1.74623e-010 0 -2.59999e-017
Spine  20.1886 16.2574 14.2161
Spine1  18.9888 17.6228 -5.56037
HEad  27.9334 -4.10602 4.56524
LeftShoulder1  0.88446 -1.98958 -8.64062
LeftArm  -51.317 -19.9524 17.5951
LeftForeArm  106.112 -79.2313 -108.748
LeftHand  -0.128186 6.84662 -6.54626
RightShoulder  1.2271 4.51288 7.79698
RightArm  -3.25128 68.4926 59.1536
RightForeArm  26.0554 44.786 9.3028
RightHand  -2.09504 2.33945 -30.9793
LeftUpLeg  -59.3436 31.0783 28.4554
LeftLeg  -5.75019 19.5722 -2.04506
LeftFoot  36.1494 3.49094 -8.45776
LeftToes  -6.27559e-011 -2.10356e-011 8.24929e-012
215
root  0.946617 45.0188 8.71576 130.064 27.1392 -175.545
RightUpLeg  18.17 -10.6632 -37.9328
RightLeg  94.4558 -2.02217 20.7896
RightFoot  43.4185 -7.35241 14.7997
RightToes  -1.74623e-010 0 -2.59999e-017
Spine  21.6442 11.8742 13.0625
Spine1  21.6589 11.6822 2.4136
HEad  26.4995 -12.7193 7.16107
LeftShoulder1  0.768716 -1.76975 -6.94911
LeftArm  -60.1699 -28.6836 17.6081
LeftForeArm  69.7598 -78.8729 -60.3842
LeftHand  -0.11234 8.88779 -1.87848
RightShoulder  1.83103 5.12644 14.3919
RightArm  -28.6759 57.7785 28.0858
RightForeArm  21.4777 49.7718 11.6346
RightHand  -2.0453 2.35663 -30.2134
LeftUpLeg  -72.2239 29.2317 15.0539
LeftLeg  12.969 7.73673 0.12708
LeftFoot  37.8487 3.49992 -8.17552
LeftToes  -6.27559e-011 -2.10356e-011 8.24929e-012
216
root  0.731761 45.3873 6.96658 131.273 13.5058 -164.922
RightUpLeg  5.04021 -3.96273 -41.9268
RightLeg  117.606 -10.7237 18.5391
RightFoot  46.3017 -6.67937 12.7171
RightToes  -1.74623e-010 0 -2.59999e-017
Spine  21.8446 11.4231 11.5683
Spine1  19.6967 4.51768 10.7073
HEad  23.0128 -22.2349 8.44651
LeftShoulder1  0.924994 -2.29565 -8.42619
LeftArm  -72.4693 -42.4459 17.8273
LeftForeArm  53.0021 -73.4629 -32.9613
LeftHand  0.0523652 8.43793 3.6283
RightShoulder  2.42764 5.37776 21.0252
RightArm  -46.4263 37.3045 4.097
RightForeArm  12.3782 53.3569 14.2041
RightHand  -1.90904 2.22155 -28.7872
LeftUpLeg  -82.2975 26.4694 -0.320008
LeftLeg  42.1609 -1.19589 -0.269204
LeftFoot  36.1443 2.73261 -6.73791
LeftToes  -6.27559e-011 -2.10356e-011 8.24929e-012
217
root  0.7947 46.1513 5.77902 131.812 0.718414 -152.516
RightUpLeg  -13.1955 2.37242 -46.5083
RightLeg  119.006 -11.0989 18.3863
RightFoot  43.045 -5.33554 10.9897
RightToes  -1.74623e-010 0 -2.59999e-017
Spine  19.6516 8.00955 9.77955
Spine1  16.7192 -1.84474 19.0989
HEad  19.9363 -28.6703 6.54731
LeftShoulder1  1.29643 -3.19875 -12.2258
LeftArm  -83.0016 -56.9955 17.4118
LeftForeArm  50.7538 -71.3035 -28.0326
LeftHand  0.294561 8.28089 12.2469
RightShoulder  2.87651 5.41336 26.2406
RightArm  -55.656 16.8509 -9.09782
RightForeArm  8.5938 55.3611 15.7126
RightHand  -2.05671 2.38115 -30.2572
LeftUpLeg  -80.9694 27.2811 -6.2257
LeftLeg  58.145 -1.35868 -1.8773
LeftFoot  32.3077 1.8122 -5.02554
LeftToes  -6.27559e-011 -2.10356e-011 8.24929e-012
218
root  0.923808 46.7414 4.13575 126.83 -9.25751 -141.524
RightUpLeg  -26.7355 2.07678 -53.6252
RightLeg  99.0563 -3.9629 20.9324
RightFoot  41.0616 -5.2122 11.1869
RightToes  -1.74623e-010 0 -2.59999e-017
Spine  19.7574 2.99299 4.67397
Spine1  13.8166 -8.20574 25.8587
HEad  18.9742 -30.792 5.82948
LeftShoulder1  1.36791 -3.28979 -13.125
LeftArm  -78.1554 -69.5078 5.56808
LeftForeArm  47.7254 -72.1056 -30.5116
LeftHand  0.336538 6.97018 24.7077
RightShoulder  3.06977 5.3929 28.5655
RightArm  -58.783 3.44563 -9.65952
RightForeArm  -4.49717 52.7233 15.2116
RightHand  -2.74715 4.85102 -30.7031
LeftUpLeg  -70.1645 34.4709 -0.246797
LeftLeg  69.4684 -0.299874 -0.0396272
LeftFoot  33.1468 1.54022 -4.28458
LeftToes  -6.27559e-011 -2.10356e-011 8.24929e-012
